<svg xmlns="http://www.w3.org/2000/svg" xmlns:xlink="http://www.w3.org/1999/xlink" xmlns:lucid="lucid" width="1183.31" height="1831.4"><g transform="translate(-378 -319)" lucid:page-tab-id="0_0"><path d="M0 0h1870.4v2582.4H0z" fill="#fff"/><path d="M866.73 880.4a12 12 0 0 1 12-12h668.58a12 12 0 0 1 12 12v1256a12 12 0 0 1-12 12H878.74a12 12 0 0 1-12-12z" stroke="#000" stroke-width="4" fill="#fff"/><path d="M866.73 807.07a12 12 0 0 1 12-12h103.45a12 12 0 0 1 12 12v37.33a12 12 0 0 1-12 12H878.73a12 12 0 0 1-12-12z" stroke="#000" stroke-width="4"/><use xlink:href="#a" transform="matrix(1,0,0,1,878.7333333333338,810.6666666666667) translate(0 25.22222222222222)"/><path d="M380 880.4a12 12 0 0 1 12-12h411.2a12 12 0 0 1 12 12v999.2a12 12 0 0 1-12 12H392a12 12 0 0 1-12-12z" stroke="#000" stroke-width="4" fill="#fff"/><path d="M380 807.07a12 12 0 0 1 12-12h186.06a12 12 0 0 1 12 12v37.33a12 12 0 0 1-12 12H392a12 12 0 0 1-12-12z" stroke="#000" stroke-width="4"/><use xlink:href="#b" transform="matrix(1,0,0,1,392,810.6666666666667) translate(0 25.22222222222222)"/><path d="M935.2 320c22.1 0 40 17.9 40 40s-17.9 40-40 40h-80c-22.1 0-40-17.9-40-40s17.9-40 40-40z" stroke="#000" stroke-width="2" fill="#fff"/><use xlink:href="#c" transform="matrix(1,0,0,1,820.1999999999999,325) translate(47.55 38.6)"/><path d="M895.2 402v32.5" stroke="#000" stroke-width="2" fill="none"/><path d="M896.17 402.03h-1.94V401h1.94z" stroke="#000" stroke-width=".05"/><path d="M895.2 449.76l-4.63-14.26h9.26z" stroke="#000" stroke-width="2"/><path d="M469.6 971.6H740v120H469.6z" stroke="#000" stroke-width="2" fill="#fff"/><use xlink:href="#d" transform="matrix(1,0,0,1,474.60000000000036,976.5999999999999) translate(50.125 47.8)"/><use xlink:href="#e" transform="matrix(1,0,0,1,474.60000000000036,976.5999999999999) translate(127.025 47.8)"/><use xlink:href="#f" transform="matrix(1,0,0,1,474.60000000000036,976.5999999999999) translate(28.650000000000006 69.4)"/><use xlink:href="#g" transform="matrix(1,0,0,1,474.60000000000036,976.5999999999999) translate(144.45 69.4)"/><use xlink:href="#h" transform="matrix(1,0,0,1,474.60000000000036,976.5999999999999) translate(154.45 69.4)"/><path d="M895.2 588v40.65" stroke="#000" stroke-width="2" fill="none"/><path d="M896.17 588.03h-1.94V587h1.94z" stroke="#000" stroke-width=".05"/><path d="M895.2 643.9l-4.63-14.25h9.26z" stroke="#000" stroke-width="2"/><path d="M604.8 1249.8v14.7" stroke="#000" stroke-width="2" fill="none"/><path d="M605.77 1249.83h-1.94v-1.03h1.94z" stroke="#000" stroke-width=".05"/><path d="M604.8 1279.76l-4.63-14.26h9.26z" stroke="#000" stroke-width="2"/><path d="M604.8 1093.6v14.7" stroke="#000" stroke-width="2" fill="none"/><path d="M605.77 1093.63h-1.94v-1.03h1.94z" stroke="#000" stroke-width=".05"/><path d="M604.8 1123.56l-4.63-14.26h9.26z" stroke="#000" stroke-width="2"/><path d="M604.8 1406v10.65" stroke="#000" stroke-width="2" fill="none"/><path d="M605.77 1406.03h-1.94V1405h1.94z" stroke="#000" stroke-width=".05"/><path d="M604.8 1431.9l-4.63-14.25h9.26z" stroke="#000" stroke-width="2"/><path d="M644.8 1776.4c22.1 0 40 17.9 40 40s-17.9 40-40 40h-80c-22.1 0-40-17.9-40-40s17.9-40 40-40z" stroke="#000" stroke-width="2" fill="#fff"/><use xlink:href="#i" transform="matrix(1,0,0,1,529.8000000000002,1781.4) translate(60.55 38.6)"/><path d="M785.2 454h220v132h-220z" stroke="#000" stroke-width="2" fill="#fff"/><use xlink:href="#j" transform="matrix(1,0,0,1,797.1999999999998,466) translate(15.199999999999989 36)"/><use xlink:href="#k" transform="matrix(1,0,0,1,797.1999999999998,466) translate(94.95 36)"/><use xlink:href="#l" transform="matrix(1,0,0,1,797.1999999999998,466) translate(171.8 36)"/><use xlink:href="#m" transform="matrix(1,0,0,1,797.1999999999998,466) translate(9.224999999999994 57.6)"/><use xlink:href="#n" transform="matrix(1,0,0,1,797.1999999999998,466) translate(77.025 57.6)"/><use xlink:href="#o" transform="matrix(1,0,0,1,797.1999999999998,466) translate(82.025 79.20000000000002)"/><path d="M895.2 648.4l80 60-80 60-80-60z" stroke="#000" stroke-width="2" fill="#fff"/><use xlink:href="#p" transform="matrix(1,0,0,1,820.1999999999998,653.4000000000001) translate(29.574999999999996 47.8)"/><use xlink:href="#q" transform="matrix(1,0,0,1,820.1999999999998,653.4000000000001) translate(66.525 47.8)"/><use xlink:href="#r" transform="matrix(1,0,0,1,820.1999999999998,653.4000000000001) translate(85.475 47.8)"/><use xlink:href="#s" transform="matrix(1,0,0,1,820.1999999999998,653.4000000000001) translate(22.574999999999996 69.4)"/><path d="M977.87 708.4h85.26v180.5" stroke="#e81313" stroke-width="2" fill="none"/><path d="M977.9 709.38h-2.33l1.3-.98-1.3-.98h2.32z" stroke="#e81313" stroke-width=".05" fill="#e81313"/><path d="M1063.13 904.16l-4.63-14.26h9.27z" stroke="#e81313" stroke-width="2" fill="#e81313"/><use xlink:href="#t" transform="matrix(1,0,0,1,988.2306458512204,682.8000000000002) translate(0.005000000000000782 14.4)"/><path d="M983.13 908.4h160v120h-160z" stroke="#000" stroke-width="2" fill="#fff"/><use xlink:href="#u" transform="matrix(1,0,0,1,995.1333333333337,920.4000000000001) translate(0.5999999999999943 30)"/><use xlink:href="#v" transform="matrix(1,0,0,1,995.1333333333337,920.4000000000001) translate(78.5 30)"/><use xlink:href="#w" transform="matrix(1,0,0,1,995.1333333333337,920.4000000000001) translate(5.625 51.6)"/><use xlink:href="#x" transform="matrix(1,0,0,1,995.1333333333337,920.4000000000001) translate(46.475 51.6)"/><use xlink:href="#y" transform="matrix(1,0,0,1,995.1333333333337,920.4000000000001) translate(110.375 51.6)"/><use xlink:href="#z" transform="matrix(1,0,0,1,995.1333333333337,920.4000000000001) translate(38.55 73.2)"/><path d="M812.53 708.4H604.8v243.7" stroke="#008a0e" stroke-width="2" fill="none"/><path d="M813.53 708.4l1.3.98h-2.32v-1.96h2.33z" stroke="#008a0e" stroke-width=".05" fill="#008a0e"/><path d="M604.8 967.36l-4.63-14.26h9.26z" stroke="#008a0e" stroke-width="2" fill="#008a0e"/><use xlink:href="#A" transform="matrix(1,0,0,1,785.2927804515087,682.8000000000002) translate(0.005000000000000782 14.4)"/><path d="M983.13 1118.9h160v120h-160z" stroke="#000" stroke-width="2" fill="#fff"/><use xlink:href="#B" transform="matrix(1,0,0,1,995.1333333333337,1130.9) translate(30.525 30)"/><use xlink:href="#C" transform="matrix(1,0,0,1,995.1333333333337,1130.9) translate(29.549999999999997 51.6)"/><use xlink:href="#D" transform="matrix(1,0,0,1,995.1333333333337,1130.9) translate(30.525 73.2)"/><path d="M1241 1118.9h160v120h-160z" stroke="#000" stroke-width="2" fill="#fff"/><path d="M1257 1118.9v120m128-120v120" stroke="#000" stroke-width="2" fill="none"/><use xlink:href="#E" transform="matrix(1,0,0,1,1273,1130.9) translate(12.049999999999997 30)"/><use xlink:href="#F" transform="matrix(1,0,0,1,1273,1130.9) translate(3.049999999999997 51.6)"/><use xlink:href="#G" transform="matrix(1,0,0,1,1273,1130.9) translate(69 51.6)"/><use xlink:href="#z" transform="matrix(1,0,0,1,1273,1130.9) translate(18.549999999999997 73.2)"/><path d="M1321 1240.9v10.1" stroke="#3a414a" stroke-width="2" fill="none"/><path d="M1321.97 1240.93h-1.94v-1.03h1.94z" stroke="#3a414a" stroke-width=".05" fill="#3a414a"/><path d="M1321 1266.26l-4.63-14.26h9.27z" stroke="#3a414a" stroke-width="2" fill="#3a414a"/><path d="M1321 1392.5v10.1" stroke="#3a414a" stroke-width="2" fill="none"/><path d="M1321.97 1392.53h-1.94v-1.03h1.94z" stroke="#3a414a" stroke-width=".05" fill="#3a414a"/><path d="M1321 1417.86l-4.63-14.26h9.27z" stroke="#3a414a" stroke-width="2" fill="#3a414a"/><path d="M1241 1422.1h160v120h-160z" stroke="#000" stroke-width="2" fill="#fff"/><path d="M1257 1422.1v120m128-120v120" stroke="#000" stroke-width="2" fill="none"/><use xlink:href="#H" transform="matrix(1,0,0,1,1273,1434.1000000000001) translate(30.025 19.19999999999999)"/><use xlink:href="#I" transform="matrix(1,0,0,1,1273,1434.1000000000001) translate(3.5249999999999986 40.79999999999999)"/><use xlink:href="#y" transform="matrix(1,0,0,1,1273,1434.1000000000001) translate(72.475 40.79999999999999)"/><use xlink:href="#C" transform="matrix(1,0,0,1,1273,1434.1000000000001) translate(9.549999999999997 62.39999999999999)"/><use xlink:href="#D" transform="matrix(1,0,0,1,1273,1434.1000000000001) translate(10.524999999999999 84)"/><path d="M1216.42 1270.5h209.16v120h-209.16z" stroke="#000" stroke-width="2" fill="#fff"/><path d="M1237.34 1270.5v120m167.32-120v120" stroke="#000" stroke-width="2" fill="none"/><use xlink:href="#J" transform="matrix(1,0,0,1,1254.565947106826,1282.5) translate(36.05 14.4)"/><use xlink:href="#K" transform="matrix(1,0,0,1,1254.565947106826,1282.5) translate(17.174999999999997 36)"/><use xlink:href="#L" transform="matrix(1,0,0,1,1254.565947106826,1282.5) translate(95.825 36)"/><use xlink:href="#I" transform="matrix(1,0,0,1,1254.565947106826,1282.5) translate(22.025 57.6)"/><use xlink:href="#M" transform="matrix(1,0,0,1,1254.565947106826,1282.5) translate(90.975 57.6)"/><use xlink:href="#C" transform="matrix(1,0,0,1,1254.565947106826,1282.5) translate(28.049999999999997 79.20000000000002)"/><use xlink:href="#N" transform="matrix(1,0,0,1,1254.565947106826,1282.5) translate(31.049999999999997 100.80000000000001)"/><path d="M1321 1544.1v10.1" stroke="#3a414a" stroke-width="2" fill="none"/><path d="M1321.97 1544.13h-1.94v-1.03h1.94z" stroke="#3a414a" stroke-width=".05" fill="#3a414a"/><path d="M1321 1569.46l-4.63-14.26h9.27z" stroke="#3a414a" stroke-width="2" fill="#3a414a"/><path d="M1241 1573.7h160v120h-160z" stroke="#000" stroke-width="2" fill="#fff"/><path d="M1257 1573.7v120m128-120v120" stroke="#000" stroke-width="2" fill="none"/><use xlink:href="#O" transform="matrix(1,0,0,1,1273,1585.7000000000003) translate(17.574999999999996 30)"/><use xlink:href="#C" transform="matrix(1,0,0,1,1273,1585.7000000000003) translate(9.549999999999997 51.6)"/><use xlink:href="#D" transform="matrix(1,0,0,1,1273,1585.7000000000003) translate(10.524999999999999 73.2)"/><path d="M1063.13 1240.9v10.1" stroke="#3a414a" stroke-width="2" fill="none"/><path d="M1064.1 1240.93h-1.94v-1.03h1.95z" stroke="#3a414a" stroke-width=".05" fill="#3a414a"/><path d="M1063.13 1266.26l-4.63-14.26h9.27z" stroke="#3a414a" stroke-width="2" fill="#3a414a"/><path d="M983.13 1270.5h160v120h-160z" stroke="#000" stroke-width="2" fill="#fff"/><use xlink:href="#P" transform="matrix(1,0,0,1,995.1333333333337,1282.5) translate(28.574999999999996 30)"/><use xlink:href="#I" transform="matrix(1,0,0,1,995.1333333333337,1282.5) translate(23.525 51.6)"/><use xlink:href="#y" transform="matrix(1,0,0,1,995.1333333333337,1282.5) translate(92.475 51.6)"/><use xlink:href="#Q" transform="matrix(1,0,0,1,995.1333333333337,1282.5) translate(37.525 73.2)"/><path d="M1063.13 1392.5v10.1" stroke="#3a414a" stroke-width="2" fill="none"/><path d="M1064.1 1392.53h-1.94v-1.03h1.95z" stroke="#3a414a" stroke-width=".05" fill="#3a414a"/><path d="M1063.13 1417.86l-4.63-14.26h9.27z" stroke="#3a414a" stroke-width="2" fill="#3a414a"/><path d="M983.13 1422.1h160v120h-160z" stroke="#000" stroke-width="2" fill="#fff"/><use xlink:href="#R" transform="matrix(1,0,0,1,995.1333333333337,1434.1000000000004) translate(3.049999999999997 40.8)"/><use xlink:href="#I" transform="matrix(1,0,0,1,995.1333333333337,1434.1000000000004) translate(44 40.8)"/><use xlink:href="#y" transform="matrix(1,0,0,1,995.1333333333337,1434.1000000000004) translate(112.95 40.8)"/><use xlink:href="#S" transform="matrix(1,0,0,1,995.1333333333337,1434.1000000000004) translate(44.55 62.4)"/><path d="M1063.13 1544.1v10.1" stroke="#3a414a" stroke-width="2" fill="none"/><path d="M1064.1 1544.13h-1.94v-1.03h1.95z" stroke="#3a414a" stroke-width=".05" fill="#3a414a"/><path d="M1063.13 1569.46l-4.63-14.26h9.27z" stroke="#3a414a" stroke-width="2" fill="#3a414a"/><path d="M983.13 1573.7h160v120h-160z" stroke="#000" stroke-width="2" fill="#fff"/><use xlink:href="#T" transform="matrix(1,0,0,1,995.1333333333337,1585.7000000000003) translate(1.5999999999999943 19.19999999999999)"/><use xlink:href="#C" transform="matrix(1,0,0,1,995.1333333333337,1585.7000000000003) translate(57.5 19.19999999999999)"/><use xlink:href="#U" transform="matrix(1,0,0,1,995.1333333333337,1585.7000000000003) translate(11.099999999999994 40.79999999999999)"/><use xlink:href="#V" transform="matrix(1,0,0,1,995.1333333333337,1585.7000000000003) translate(30.049999999999994 40.79999999999999)"/><use xlink:href="#W" transform="matrix(1,0,0,1,995.1333333333337,1585.7000000000003) translate(50.025 62.39999999999999)"/><use xlink:href="#X" transform="matrix(1,0,0,1,995.1333333333337,1585.7000000000003) translate(9.074999999999996 84)"/><path d="M866.73 1262.1h111.82v296.8H866.73z" fill="none"/><path d="M978.55 1558.9c-5.52 0-10-4.48-10-10v-128.4c0-5.52-4.47-10-10-10 5.53 0 10-4.48 10-10v-128.4c0-5.52 4.48-10 10-10" stroke="#000" stroke-width="2" fill="none"/><use xlink:href="#Y" transform="matrix(1,0,0,1,871.7333333333336,1267.1000000000004) translate(9.149999999999999 147.1)"/><path d="M1432.6 1262.1h120v296.8h-120z" fill="none"/><path d="M1432.6 1558.9c5.52 0 10-4.48 10-10v-128.4c0-5.52 4.48-10 10-10-5.52 0-10-4.48-10-10v-128.4c0-5.52-4.48-10-10-10" stroke="#000" stroke-width="2" fill="none"/><use xlink:href="#Y" transform="matrix(1,0,0,1,1467.6,1267.1) translate(0 147.1)"/><path d="M604.8 1436.4l80 60-80 60-80-60z" stroke="#000" stroke-width="2" fill="#fff"/><use xlink:href="#Z" transform="matrix(1,0,0,1,529.8000000000002,1441.4) translate(11.17499999999999 58.6)"/><path d="M522.13 1496.4H428.6v-464.8h21.5" stroke="#008a0e" stroke-width="2" fill="none"/><path d="M523.13 1496.4l1.3.97h-2.32v-1.94h2.33z" stroke="#008a0e" stroke-width=".05" fill="#008a0e"/><path d="M465.36 1031.6l-14.26 4.63v-9.27z" stroke="#008a0e" stroke-width="2" fill="#008a0e"/><use xlink:href="#A" transform="matrix(1,0,0,1,495.6038027906726,1470.8000000000002) translate(0.005000000000000782 14.4)"/><path d="M604.8 1738.4v18.5" stroke="#3a414a" stroke-width="2" fill="none"/><path d="M605.77 1738.43h-1.94v-1.03h1.94z" stroke="#3a414a" stroke-width=".05" fill="#3a414a"/><path d="M604.8 1772.16l-4.63-14.26h9.26z" stroke="#3a414a" stroke-width="2" fill="#3a414a"/><path d="M604.8 1558.65v38.25" stroke="#e81313" stroke-width="2" fill="none"/><path d="M604.8 1557.65l.98-.73v1.76h-1.95v-1.76z" stroke="#e81313" stroke-width=".05" fill="#e81313"/><path d="M604.8 1612.16l-4.63-14.26h9.26z" stroke="#e81313" stroke-width="2" fill="#e81313"/><use xlink:href="#t" transform="matrix(1,0,0,1,573.8500000000001,1565.7057834894447) translate(0.005000000000000782 14.4)"/><path d="M469.6 1127.8H740v120H469.6z" stroke="#000" stroke-width="2" fill="#fff"/><use xlink:href="#aa" transform="matrix(1,0,0,1,481.60000000000036,1139.7999999999997) translate(53.099999999999994 51.6)"/><use xlink:href="#ab" transform="matrix(1,0,0,1,481.60000000000036,1139.7999999999997) translate(117 51.6)"/><path d="M1063.13 1695.7v12.2" stroke="#000" stroke-width="2" fill="none"/><path d="M1064.1 1695.73h-1.94v-1.03h1.95z" stroke="#000" stroke-width=".05"/><path d="M1063.13 1723.16l-4.63-14.26h9.27z" stroke="#000" stroke-width="2"/><path d="M1063.13 1727.65l80 60-80 60-80-60z" stroke="#000" stroke-width="2" fill="#fff"/><use xlink:href="#Z" transform="matrix(1,0,0,1,988.1333333333337,1732.65) translate(11.17499999999999 58.6)"/><path d="M1063.13 1850.9v33.76" stroke="#e81313" stroke-width="4" fill="none"/><path d="M1063.13 1848.9l1.98-1.48v3.53h-3.94v-3.53z" stroke="#e81313" stroke-width=".05" fill="#e81313"/><path d="M1063.13 1900.93l-4.63-14.27h9.27z" stroke="#e81313" stroke-width="4" fill="#e81313"/><g><use xlink:href="#t" transform="matrix(1,0,0,1,1032.1833333333336,1853.306008355974) translate(0.005000000000000782 14.4)"/></g><path d="M1321 1695.7v12.2" stroke="#000" stroke-width="2" fill="none"/><path d="M1321.97 1695.73h-1.94v-1.03h1.94z" stroke="#000" stroke-width=".05"/><path d="M1321 1723.16l-4.63-14.26h9.27z" stroke="#000" stroke-width="2"/><path d="M1321 1727.65l80 60-80 60-80-60z" stroke="#000" stroke-width="2" fill="#fff"/><g><use xlink:href="#Z" transform="matrix(1,0,0,1,1246,1732.65) translate(11.17499999999999 58.6)"/></g><path d="M1221.5 1179.88h-20.53v606.8h14.23v1.94h-16.17v-610.7h22.47zm16.83 606.8v1.94h-6.13v-1.94z" stroke="#008a0e" stroke-width=".05" fill="#008a0e"/><path d="M1239.33 1787.65l1.3.97h-2.32v-1.94h2.33z" fill="#008a0e"/><path stroke="#008a0e" stroke-width=".05" fill="#008a0e"/><path d="M1236.76 1178.9l-14.26 4.63v-9.26z" fill="#008a0e"/><path d="M1239.92 1178.9l-18.4 5.98v-11.96zm-16.45 3.3l10.14-3.3-10.13-3.3z" stroke="#008a0e" stroke-width=".05" fill="#008a0e"/><g><use xlink:href="#ac" transform="matrix(1,0,0,1,1215.1965144230694,1776.8500000000001) translate(0.005000000000000782 14.4)"/></g><path d="M1321 1850.9v12.63h-235.13" stroke="#e81313" stroke-width="4" fill="none"/><path d="M1322.97 1850.95h-3.94v-3.53l1.97 1.48 1.97-1.48z" stroke="#e81313" stroke-width=".05" fill="#e81313"/><path d="M1069.6 1863.53l14.27-4.64v9.26z" stroke="#e81313" stroke-width="4" fill="#e81313"/><g><use xlink:href="#t" transform="matrix(1,0,0,1,1200.1344122181674,1837.9250000000002) translate(0.005000000000000782 14.4)"/></g><path d="M1152.6 1788.63h-6.8v-1.96h6.8zm28.38 0h-11.4v-1.96h9.45v-606.8h-16.4v-1.94h18.34z" stroke="#008a0e" stroke-width=".05" fill="#008a0e"/><path d="M1145.83 1788.63h-2.33l1.3-.98-1.3-.98h2.33z" fill="#008a0e"/><path stroke="#008a0e" stroke-width=".05" fill="#008a0e"/><path d="M1161.63 1183.54l-14.26-4.64 14.27-4.63z" fill="#008a0e"/><path d="M1162.6 1184.88l-18.4-5.98 18.4-5.98zm-12.07-5.98l10.13 3.3v-6.6z" stroke="#008a0e" stroke-width=".05" fill="#008a0e"/><g><use xlink:href="#ac" transform="matrix(1,0,0,1,1152.5848936805446,1776.8500000000001) translate(0.005000000000000782 14.4)"/></g><path d="M1063.13 1031.4v63.76" stroke="#3a414a" stroke-width="4" fill="none"/><path d="M1065.1 1031.45h-3.94v-2.05h3.95z" stroke="#3a414a" stroke-width=".05" fill="#3a414a"/><path d="M1063.13 1111.43l-4.63-14.27h9.27z" stroke="#3a414a" stroke-width="4" fill="#3a414a"/><path d="M1063.13 1031.4v42.25H1321v21.5" stroke="#3a414a" stroke-width="4" fill="none"/><path d="M1065.1 1031.45h-3.94v-2.05h3.95z" stroke="#3a414a" stroke-width=".05" fill="#3a414a"/><path d="M1321 1111.43l-4.63-14.27h9.27z" stroke="#3a414a" stroke-width="4" fill="#3a414a"/><path d="M983.13 1908.4h160v80h-160z" stroke="#000" stroke-width="2" fill="#fff"/><g><use xlink:href="#ad" transform="matrix(1,0,0,1,995.1333333333337,1920.4) translate(17.549999999999997 20.799999999999997)"/><use xlink:href="#ae" transform="matrix(1,0,0,1,995.1333333333337,1920.4) translate(42.05 42.4)"/></g><path d="M1103.13 2028.4c22.1 0 40 17.9 40 40s-17.9 40-40 40h-80c-22.1 0-40-17.9-40-40s17.9-40 40-40z" stroke="#000" stroke-width="2" fill="#fff"/><g><use xlink:href="#i" transform="matrix(1,0,0,1,988.1333333333337,2033.4) translate(60.55 38.6)"/></g><path d="M1063.13 1990.4v18.5" stroke="#3a414a" stroke-width="2" fill="none"/><path d="M1064.1 1990.43h-1.94v-1.03h1.95z" stroke="#3a414a" stroke-width=".05" fill="#3a414a"/><path d="M1063.13 2024.16l-4.63-14.26h9.27z" stroke="#3a414a" stroke-width="2" fill="#3a414a"/><path d="M469.6 1284H740v120H469.6z" stroke="#000" stroke-width="2" fill="#fff"/><g><use xlink:href="#af" transform="matrix(1,0,0,1,481.60000000000036,1296) translate(49.625 51.6)"/><use xlink:href="#ag" transform="matrix(1,0,0,1,481.60000000000036,1296) translate(133.47500000000002 51.6)"/></g><path d="M469.6 1616.4H740v120H469.6z" stroke="#000" stroke-width="2" fill="#fff"/><g><use xlink:href="#ah" transform="matrix(1,0,0,1,481.60000000000036,1628.4) translate(56.099999999999994 51.6)"/><use xlink:href="#ag" transform="matrix(1,0,0,1,481.60000000000036,1628.4) translate(127 51.6)"/></g><path d="M620 816.87h128.83v28.98H620z" fill="none"/><g><use xlink:href="#ai" transform="matrix(1,0,0,1,625,821.8666666666661) translate(0 14.98876953125)"/><use xlink:href="#aj" transform="matrix(1,0,0,1,625,821.8666666666661) translate(32.4052734375 14.98876953125)"/></g><path d="M1080 816.87h128.83v28.98H1080z" fill="none"/><g><use xlink:href="#ai" transform="matrix(1,0,0,1,1085,821.8666666666661) translate(0 14.98876953125)"/><use xlink:href="#ak" transform="matrix(1,0,0,1,1085,821.8666666666661) translate(32.4052734375 14.98876953125)"/></g><defs><path fill="#fff" d="M67-125c0 53 21 87 73 88 37 1 54-22 65-47l45 17C233-25 199 4 140 4 58 4 20-42 15-125 8-235 124-281 211-232c18 10 29 29 36 50l-46 12c-8-25-30-41-62-41-52 0-71 34-72 86" id="al"/><path fill="#fff" d="M25 0v-261h50V0H25" id="am"/><path fill="#fff" d="M25-224v-37h50v37H25zM25 0v-190h50V0H25" id="an"/><path fill="#fff" d="M185-48c-13 30-37 53-82 52C43 2 14-33 14-96s30-98 90-98c62 0 83 45 84 108H66c0 31 8 55 39 56 18 0 30-7 34-22zm-45-69c5-46-57-63-70-21-2 6-4 13-4 21h74" id="ao"/><path fill="#fff" d="M135-194c87-1 58 113 63 194h-50c-7-57 23-157-34-157-59 0-34 97-39 157H25l-1-190h47c2 12-1 28 3 38 12-26 28-41 61-42" id="ap"/><path fill="#fff" d="M115-3C79 11 28 4 28-45v-112H4v-33h27l15-45h31v45h36v33H77v99c-1 23 16 31 38 25v30" id="aq"/><g id="a"><use transform="matrix(0.08641975308641976,0,0,0.08641975308641976,0,0)" xlink:href="#al"/><use transform="matrix(0.08641975308641976,0,0,0.08641975308641976,22.38271604938272,0)" xlink:href="#am"/><use transform="matrix(0.08641975308641976,0,0,0.08641975308641976,31.024691358024693,0)" xlink:href="#an"/><use transform="matrix(0.08641975308641976,0,0,0.08641975308641976,39.66666666666667,0)" xlink:href="#ao"/><use transform="matrix(0.08641975308641976,0,0,0.08641975308641976,56.95061728395062,0)" xlink:href="#ap"/><use transform="matrix(0.08641975308641976,0,0,0.08641975308641976,75.87654320987654,0)" xlink:href="#aq"/><use transform="matrix(0.08641975308641976,0,0,0.08641975308641976,86.1604938271605,0)" xlink:href="#ao"/></g><path fill="#fff" d="M110-194c64 0 96 36 96 99 0 64-35 99-97 99-61 0-95-36-95-99 0-62 34-99 96-99zm-1 164c35 0 45-28 45-65 0-40-10-65-43-65-34 0-45 26-45 65 0 36 10 65 43 65" id="ar"/><path fill="#fff" d="M135-150c-39-12-60 13-60 57V0H25l-1-190h47c2 13-1 29 3 40 6-28 27-53 61-41v41" id="as"/><path fill="#fff" d="M88-194c31-1 46 15 58 34l-1-101h50l1 261h-48c-2-10 0-23-3-31C134-8 116 4 84 4 32 4 16-41 15-95c0-56 19-97 73-99zm17 164c33 0 40-30 41-66 1-37-9-64-41-64s-38 30-39 65c0 43 13 65 39 65" id="at"/><path fill="#fff" d="M133-34C117-15 103 5 69 4 32 3 11-16 11-54c-1-60 55-63 116-61 1-26-3-47-28-47-18 1-26 9-28 27l-52-2c7-38 36-58 82-57s74 22 75 68l1 82c-1 14 12 18 25 15v27c-30 8-71 5-69-32zm-48 3c29 0 43-24 42-57-32 0-66-3-65 30 0 17 8 27 23 27" id="au"/><g id="b"><use transform="matrix(0.08641975308641976,0,0,0.08641975308641976,0,0)" xlink:href="#al"/><use transform="matrix(0.08641975308641976,0,0,0.08641975308641976,22.38271604938272,0)" xlink:href="#ar"/><use transform="matrix(0.08641975308641976,0,0,0.08641975308641976,41.308641975308646,0)" xlink:href="#ar"/><use transform="matrix(0.08641975308641976,0,0,0.08641975308641976,60.23456790123458,0)" xlink:href="#as"/><use transform="matrix(0.08641975308641976,0,0,0.08641975308641976,72.33333333333334,0)" xlink:href="#at"/><use transform="matrix(0.08641975308641976,0,0,0.08641975308641976,91.25925925925927,0)" xlink:href="#an"/><use transform="matrix(0.08641975308641976,0,0,0.08641975308641976,99.90123456790124,0)" xlink:href="#ap"/><use transform="matrix(0.08641975308641976,0,0,0.08641975308641976,118.82716049382718,0)" xlink:href="#au"/><use transform="matrix(0.08641975308641976,0,0,0.08641975308641976,136.11111111111111,0)" xlink:href="#at"/><use transform="matrix(0.08641975308641976,0,0,0.08641975308641976,155.03703703703704,0)" xlink:href="#ar"/><use transform="matrix(0.08641975308641976,0,0,0.08641975308641976,173.96296296296296,0)" xlink:href="#as"/></g><path d="M33 0v-248h34V0H33" id="av"/><path d="M190 0L58-211 59 0H30v-248h39L202-35l-2-213h31V0h-41" id="aw"/><path d="M212-179c-10-28-35-45-73-45-59 0-87 40-87 99 0 60 29 101 89 101 43 0 62-24 78-52l27 14C228-24 195 4 139 4 59 4 22-46 18-125c-6-104 99-153 187-111 19 9 31 26 39 46" id="ax"/><path d="M140-251c81 0 123 46 123 126C263-46 219 4 140 4 59 4 17-45 17-125s42-126 123-126zm0 227c63 0 89-41 89-101s-29-99-89-99c-61 0-89 39-89 99S79-25 140-24" id="ay"/><g id="c"><use transform="matrix(0.05,0,0,0.05,0,0)" xlink:href="#av"/><use transform="matrix(0.05,0,0,0.05,5,0)" xlink:href="#aw"/><use transform="matrix(0.05,0,0,0.05,17.950000000000003,0)" xlink:href="#av"/><use transform="matrix(0.05,0,0,0.05,22.950000000000003,0)" xlink:href="#ax"/><use transform="matrix(0.05,0,0,0.05,35.900000000000006,0)" xlink:href="#av"/><use transform="matrix(0.05,0,0,0.05,40.900000000000006,0)" xlink:href="#ay"/></g><path d="M30-248c87 1 191-15 191 75 0 78-77 80-158 76V0H30v-248zm33 125c57 0 124 11 124-50 0-59-68-47-124-48v98" id="az"/><path d="M114-163C36-179 61-72 57 0H25l-1-190h30c1 12-1 29 2 39 6-27 23-49 58-41v29" id="aA"/><path d="M100-194c62-1 85 37 85 99 1 63-27 99-86 99S16-35 15-95c0-66 28-99 85-99zM99-20c44 1 53-31 53-75 0-43-8-75-51-75s-53 32-53 75 10 74 51 75" id="aB"/><path d="M96-169c-40 0-48 33-48 73s9 75 48 75c24 0 41-14 43-38l32 2c-6 37-31 61-74 61-59 0-76-41-82-99-10-93 101-131 147-64 4 7 5 14 7 22l-32 3c-4-21-16-35-41-35" id="aC"/><path d="M100-194c63 0 86 42 84 106H49c0 40 14 67 53 68 26 1 43-12 49-29l28 8c-11 28-37 45-77 45C44 4 14-33 15-96c1-61 26-98 85-98zm52 81c6-60-76-77-97-28-3 7-6 17-6 28h103" id="aD"/><path d="M135-143c-3-34-86-38-87 0 15 53 115 12 119 90S17 21 10-45l28-5c4 36 97 45 98 0-10-56-113-15-118-90-4-57 82-63 122-42 12 7 21 19 24 35" id="aE"/><path d="M141-36C126-15 110 5 73 4 37 3 15-17 15-53c-1-64 63-63 125-63 3-35-9-54-41-54-24 1-41 7-42 31l-33-3c5-37 33-52 76-52 45 0 72 20 72 64v82c-1 20 7 32 28 27v20c-31 9-61-2-59-35zM48-53c0 20 12 33 32 33 41-3 63-29 60-74-43 2-92-5-92 41" id="aF"/><g id="d"><use transform="matrix(0.05,0,0,0.05,0,0)" xlink:href="#az"/><use transform="matrix(0.05,0,0,0.05,12,0)" xlink:href="#aA"/><use transform="matrix(0.05,0,0,0.05,17.95,0)" xlink:href="#aB"/><use transform="matrix(0.05,0,0,0.05,27.950000000000003,0)" xlink:href="#aC"/><use transform="matrix(0.05,0,0,0.05,36.95,0)" xlink:href="#aD"/><use transform="matrix(0.05,0,0,0.05,46.95,0)" xlink:href="#aE"/><use transform="matrix(0.05,0,0,0.05,55.95,0)" xlink:href="#aF"/><use transform="matrix(0.05,0,0,0.05,65.95,0)" xlink:href="#aA"/></g><path d="M24 0v-261h32V0H24" id="aG"/><path d="M24-231v-30h32v30H24zM24 0v-190h32V0H24" id="aH"/><path d="M59-47c-2 24 18 29 38 22v24C64 9 27 4 27-40v-127H5v-23h24l9-43h21v43h35v23H59v120" id="aI"/><path d="M84 4C-5 8 30-112 23-190h32v120c0 31 7 50 39 49 72-2 45-101 50-169h31l1 190h-30c-1-10 1-25-2-33-11 22-28 36-60 37" id="aJ"/><path d="M85-194c31 0 48 13 60 33l-1-100h32l1 261h-30c-2-10 0-23-3-31C134-8 116 4 85 4 32 4 16-35 15-94c0-66 23-100 70-100zm9 24c-40 0-46 34-46 75 0 40 6 74 45 74 42 0 51-32 51-76 0-42-9-74-50-73" id="aK"/><g id="e"><use transform="matrix(0.05,0,0,0.05,0,0)" xlink:href="#aE"/><use transform="matrix(0.05,0,0,0.05,9,0)" xlink:href="#aB"/><use transform="matrix(0.05,0,0,0.05,19,0)" xlink:href="#aG"/><use transform="matrix(0.05,0,0,0.05,22.95,0)" xlink:href="#aH"/><use transform="matrix(0.05,0,0,0.05,26.899999999999995,0)" xlink:href="#aC"/><use transform="matrix(0.05,0,0,0.05,35.9,0)" xlink:href="#aH"/><use transform="matrix(0.05,0,0,0.05,39.85,0)" xlink:href="#aI"/><use transform="matrix(0.05,0,0,0.05,44.85,0)" xlink:href="#aJ"/><use transform="matrix(0.05,0,0,0.05,54.85,0)" xlink:href="#aK"/><use transform="matrix(0.05,0,0,0.05,64.85,0)" xlink:href="#aD"/><use transform="matrix(0.05,0,0,0.05,74.85,0)" xlink:href="#aE"/></g><path d="M87 75C49 33 22-17 22-94c0-76 28-126 65-167h31c-38 41-64 92-64 168S80 34 118 75H87" id="aL"/><path d="M117-194c89-4 53 116 60 194h-32v-121c0-31-8-49-39-48C34-167 62-67 57 0H25l-1-190h30c1 10-1 24 2 32 11-22 29-35 61-36" id="aM"/><path d="M210-169c-67 3-38 105-44 169h-31v-121c0-29-5-50-35-48C34-165 62-65 56 0H25l-1-190h30c1 10-1 24 2 32 10-44 99-50 107 0 11-21 27-35 58-36 85-2 47 119 55 194h-31v-121c0-29-5-49-35-48" id="aN"/><g id="f"><use transform="matrix(0.05,0,0,0.05,0,0)" xlink:href="#aL"/><use transform="matrix(0.05,0,0,0.05,5.95,0)" xlink:href="#aD"/><use transform="matrix(0.05,0,0,0.05,15.949999999999998,0)" xlink:href="#aM"/><use transform="matrix(0.05,0,0,0.05,25.950000000000003,0)" xlink:href="#aA"/><use transform="matrix(0.05,0,0,0.05,31.899999999999995,0)" xlink:href="#aJ"/><use transform="matrix(0.05,0,0,0.05,41.9,0)" xlink:href="#aI"/><use transform="matrix(0.05,0,0,0.05,46.9,0)" xlink:href="#aF"/><use transform="matrix(0.05,0,0,0.05,56.900000000000006,0)" xlink:href="#aN"/><use transform="matrix(0.05,0,0,0.05,71.85,0)" xlink:href="#aH"/><use transform="matrix(0.05,0,0,0.05,75.8,0)" xlink:href="#aD"/><use transform="matrix(0.05,0,0,0.05,85.8,0)" xlink:href="#aM"/><use transform="matrix(0.05,0,0,0.05,95.8,0)" xlink:href="#aI"/><use transform="matrix(0.05,0,0,0.05,100.8,0)" xlink:href="#aB"/></g><path d="M0 4l72-265h28L28 4H0" id="aO"/><use transform="matrix(0.05,0,0,0.05,0,0)" xlink:href="#aO" id="g"/><path d="M141 0L90-78 38 0H4l68-98-65-92h35l48 74 47-74h35l-64 92 68 98h-35" id="aP"/><path d="M100-194c62-1 85 37 85 99 1 63-27 99-86 99S16-35 15-95c0-66 28-99 85-99zM99-20c44 1 53-31 53-75 0-43-8-75-51-75s-53 32-53 75 10 74 51 75zM76-211c8-23 27-35 38-54h36v5l-58 49H76" id="aQ"/><path d="M33-261c38 41 65 92 65 168S71 34 33 75H2C39 34 66-17 66-93S39-220 2-261h31" id="aR"/><g id="h"><use transform="matrix(0.05,0,0,0.05,0,0)" xlink:href="#aC"/><use transform="matrix(0.05,0,0,0.05,9,0)" xlink:href="#aB"/><use transform="matrix(0.05,0,0,0.05,19,0)" xlink:href="#aM"/><use transform="matrix(0.05,0,0,0.05,29,0)" xlink:href="#aD"/><use transform="matrix(0.05,0,0,0.05,39,0)" xlink:href="#aP"/><use transform="matrix(0.05,0,0,0.05,48,0)" xlink:href="#aH"/><use transform="matrix(0.05,0,0,0.05,51.95,0)" xlink:href="#aQ"/><use transform="matrix(0.05,0,0,0.05,61.95,0)" xlink:href="#aM"/><use transform="matrix(0.05,0,0,0.05,71.95,0)" xlink:href="#aR"/></g><path d="M63-220v92h138v28H63V0H30v-248h175v28H63" id="aS"/><g id="i"><use transform="matrix(0.05,0,0,0.05,0,0)" xlink:href="#aS"/><use transform="matrix(0.05,0,0,0.05,10.950000000000001,0)" xlink:href="#av"/><use transform="matrix(0.05,0,0,0.05,15.950000000000001,0)" xlink:href="#aw"/></g><path d="M9 0v-24l116-142H16v-24h144v24L44-24h123V0H9" id="aT"/><g id="j"><use transform="matrix(0.05,0,0,0.05,0,0)" xlink:href="#av"/><use transform="matrix(0.05,0,0,0.05,5,0)" xlink:href="#aM"/><use transform="matrix(0.05,0,0,0.05,15,0)" xlink:href="#aH"/><use transform="matrix(0.05,0,0,0.05,18.95,0)" xlink:href="#aC"/><use transform="matrix(0.05,0,0,0.05,27.950000000000003,0)" xlink:href="#aH"/><use transform="matrix(0.05,0,0,0.05,31.899999999999995,0)" xlink:href="#aF"/><use transform="matrix(0.05,0,0,0.05,41.9,0)" xlink:href="#aG"/><use transform="matrix(0.05,0,0,0.05,45.85,0)" xlink:href="#aH"/><use transform="matrix(0.05,0,0,0.05,49.800000000000004,0)" xlink:href="#aT"/><use transform="matrix(0.05,0,0,0.05,58.800000000000004,0)" xlink:href="#aF"/><use transform="matrix(0.05,0,0,0.05,68.80000000000001,0)" xlink:href="#aA"/></g><path d="M108 0H70L1-190h34L89-25l56-165h34" id="aU"/><path d="M115-194c53 0 69 39 70 98 0 66-23 100-70 100C84 3 66-7 56-30L54 0H23l1-261h32v101c10-23 28-34 59-34zm-8 174c40 0 45-34 45-75 0-40-5-75-45-74-42 0-51 32-51 76 0 43 10 73 51 73" id="aV"/><g id="k"><use transform="matrix(0.05,0,0,0.05,0,0)" xlink:href="#aU"/><use transform="matrix(0.05,0,0,0.05,9,0)" xlink:href="#aF"/><use transform="matrix(0.05,0,0,0.05,19,0)" xlink:href="#aA"/><use transform="matrix(0.05,0,0,0.05,24.95,0)" xlink:href="#aH"/><use transform="matrix(0.05,0,0,0.05,28.899999999999995,0)" xlink:href="#aF"/><use transform="matrix(0.05,0,0,0.05,38.9,0)" xlink:href="#aV"/><use transform="matrix(0.05,0,0,0.05,48.9,0)" xlink:href="#aG"/><use transform="matrix(0.05,0,0,0.05,52.85,0)" xlink:href="#aD"/><use transform="matrix(0.05,0,0,0.05,62.85,0)" xlink:href="#aE"/></g><path d="M179-190L93 31C79 59 56 82 12 73V49c39 6 53-20 64-50L1-190h34L92-34l54-156h33" id="aW"/><use transform="matrix(0.05,0,0,0.05,0,0)" xlink:href="#aW" id="l"/><path d="M106-169C34-169 62-67 57 0H25v-261h32l-1 103c12-21 28-36 61-36 89 0 53 116 60 194h-32v-121c2-32-8-49-39-48" id="aX"/><g id="m"><use transform="matrix(0.05,0,0,0.05,0,0)" xlink:href="#aX"/><use transform="matrix(0.05,0,0,0.05,10,0)" xlink:href="#aF"/><use transform="matrix(0.05,0,0,0.05,20,0)" xlink:href="#aV"/><use transform="matrix(0.05,0,0,0.05,30,0)" xlink:href="#aH"/><use transform="matrix(0.05,0,0,0.05,33.95,0)" xlink:href="#aG"/><use transform="matrix(0.05,0,0,0.05,37.900000000000006,0)" xlink:href="#aH"/><use transform="matrix(0.05,0,0,0.05,41.85000000000001,0)" xlink:href="#aI"/><use transform="matrix(0.05,0,0,0.05,46.85000000000001,0)" xlink:href="#aF"/><use transform="matrix(0.05,0,0,0.05,56.85,0)" xlink:href="#aA"/></g><path d="M115-194c55 1 70 41 70 98S169 2 115 4C84 4 66-9 55-30l1 105H24l-1-265h31l2 30c10-21 28-34 59-34zm-8 174c40 0 45-34 45-75s-6-73-45-74c-42 0-51 32-51 76 0 43 10 73 51 73" id="aY"/><g id="n"><use transform="matrix(0.05,0,0,0.05,0,0)" xlink:href="#aY"/><use transform="matrix(0.05,0,0,0.05,10,0)" xlink:href="#aF"/><use transform="matrix(0.05,0,0,0.05,20,0)" xlink:href="#aA"/><use transform="matrix(0.05,0,0,0.05,25.950000000000003,0)" xlink:href="#aF"/><use transform="matrix(0.05,0,0,0.05,35.95,0)" xlink:href="#aG"/><use transform="matrix(0.05,0,0,0.05,39.900000000000006,0)" xlink:href="#aD"/><use transform="matrix(0.05,0,0,0.05,49.900000000000006,0)" xlink:href="#aG"/><use transform="matrix(0.05,0,0,0.05,53.85,0)" xlink:href="#aH"/><use transform="matrix(0.05,0,0,0.05,57.80000000000001,0)" xlink:href="#aT"/><use transform="matrix(0.05,0,0,0.05,66.80000000000001,0)" xlink:href="#aF"/><use transform="matrix(0.05,0,0,0.05,76.80000000000001,0)" xlink:href="#aC"/><use transform="matrix(0.05,0,0,0.05,85.80000000000001,0)" xlink:href="#aH"/><use transform="matrix(0.05,0,0,0.05,89.75000000000001,0)" xlink:href="#aQ"/><use transform="matrix(0.05,0,0,0.05,99.75000000000001,0)" xlink:href="#aM"/></g><path d="M240 0l2-218c-23 76-54 145-80 218h-23L58-218 59 0H30v-248h44l77 211c21-75 51-140 76-211h43V0h-30" id="aZ"/><g id="o"><use transform="matrix(0.05,0,0,0.05,0,0)" xlink:href="#aZ"/><use transform="matrix(0.05,0,0,0.05,14.950000000000001,0)" xlink:href="#az"/><use transform="matrix(0.05,0,0,0.05,26.950000000000003,0)" xlink:href="#av"/></g><path d="M107 61C57 61 25 39 23-9c-2-65 71-58 78-115h30c1 64-76 54-76 114 0 30 21 42 52 43 32 0 53-17 56-46l32 2c-6 46-36 72-88 72zm26-251v35H99v-35h34" id="ba"/><path d="M30 0v-248h187v28H63v79h144v27H63v87h162V0H30" id="bb"/><g id="p"><use transform="matrix(0.05,0,0,0.05,0,0)" xlink:href="#ba"/><use transform="matrix(0.05,0,0,0.05,10.950000000000001,0)" xlink:href="#bb"/><use transform="matrix(0.05,0,0,0.05,22.950000000000003,0)" xlink:href="#aE"/></g><g id="q"><use transform="matrix(0.05,0,0,0.05,0,0)" xlink:href="#aD"/><use transform="matrix(0.05,0,0,0.05,10,0)" xlink:href="#aG"/></g><path d="M143 0L79-87 56-68V0H24v-261h32v163l83-92h37l-77 82L181 0h-38" id="bc"/><g id="r"><use transform="matrix(0.05,0,0,0.05,0,0)" xlink:href="#aA"/><use transform="matrix(0.05,0,0,0.05,5.95,0)" xlink:href="#aF"/><use transform="matrix(0.05,0,0,0.05,15.949999999999998,0)" xlink:href="#aM"/><use transform="matrix(0.05,0,0,0.05,25.950000000000003,0)" xlink:href="#bc"/></g><path d="M103-251c84 0 111 97 45 133-19 10-37 24-39 52H78c0-63 77-55 77-114 0-30-21-42-52-43-32 0-53 17-56 46l-32-2c7-45 34-72 88-72zM77 0v-35h34V0H77" id="bd"/><g id="s"><use transform="matrix(0.05,0,0,0.05,0,0)" xlink:href="#aC"/><use transform="matrix(0.05,0,0,0.05,9,0)" xlink:href="#aB"/><use transform="matrix(0.05,0,0,0.05,19,0)" xlink:href="#aB"/><use transform="matrix(0.05,0,0,0.05,29,0)" xlink:href="#aA"/><use transform="matrix(0.05,0,0,0.05,34.95,0)" xlink:href="#aK"/><use transform="matrix(0.05,0,0,0.05,44.95,0)" xlink:href="#aH"/><use transform="matrix(0.05,0,0,0.05,48.900000000000006,0)" xlink:href="#aM"/><use transform="matrix(0.05,0,0,0.05,58.900000000000006,0)" xlink:href="#aF"/><use transform="matrix(0.05,0,0,0.05,68.9,0)" xlink:href="#aK"/><use transform="matrix(0.05,0,0,0.05,78.9,0)" xlink:href="#aB"/><use transform="matrix(0.05,0,0,0.05,88.9,0)" xlink:href="#aA"/><use transform="matrix(0.05,0,0,0.05,94.85000000000001,0)" xlink:href="#bd"/></g><g id="t"><use transform="matrix(0.05,0,0,0.05,0,0)" xlink:href="#aw"/><use transform="matrix(0.05,0,0,0.05,12.950000000000001,0)" xlink:href="#aB"/></g><g id="u"><use transform="matrix(0.05,0,0,0.05,0,0)" xlink:href="#ax"/><use transform="matrix(0.05,0,0,0.05,12.950000000000001,0)" xlink:href="#aB"/><use transform="matrix(0.05,0,0,0.05,22.950000000000003,0)" xlink:href="#aM"/><use transform="matrix(0.05,0,0,0.05,32.95,0)" xlink:href="#aD"/><use transform="matrix(0.05,0,0,0.05,42.95,0)" xlink:href="#aC"/><use transform="matrix(0.05,0,0,0.05,51.95,0)" xlink:href="#aI"/><use transform="matrix(0.05,0,0,0.05,56.95,0)" xlink:href="#aF"/><use transform="matrix(0.05,0,0,0.05,66.95,0)" xlink:href="#aA"/></g><path d="M68-38c1 34 0 65-14 84H32c9-13 17-26 17-46H33v-38h35" id="be"/><g id="v"><use transform="matrix(0.05,0,0,0.05,0,0)" xlink:href="#aC"/><use transform="matrix(0.05,0,0,0.05,9,0)" xlink:href="#aG"/><use transform="matrix(0.05,0,0,0.05,12.949999999999998,0)" xlink:href="#aH"/><use transform="matrix(0.05,0,0,0.05,16.9,0)" xlink:href="#aD"/><use transform="matrix(0.05,0,0,0.05,26.899999999999995,0)" xlink:href="#aM"/><use transform="matrix(0.05,0,0,0.05,36.9,0)" xlink:href="#aI"/><use transform="matrix(0.05,0,0,0.05,41.9,0)" xlink:href="#aD"/><use transform="matrix(0.05,0,0,0.05,51.900000000000006,0)" xlink:href="#be"/></g><g id="w"><use transform="matrix(0.05,0,0,0.05,0,0)" xlink:href="#aF"/><use transform="matrix(0.05,0,0,0.05,10,0)" xlink:href="#aV"/><use transform="matrix(0.05,0,0,0.05,20,0)" xlink:href="#aA"/><use transform="matrix(0.05,0,0,0.05,25.950000000000003,0)" xlink:href="#aH"/><use transform="matrix(0.05,0,0,0.05,29.899999999999995,0)" xlink:href="#aA"/></g><path d="M101-234c-31-9-42 10-38 44h38v23H63V0H32v-167H5v-23h27c-7-52 17-82 69-68v24" id="bf"/><g id="x"><use transform="matrix(0.05,0,0,0.05,0,0)" xlink:href="#aH"/><use transform="matrix(0.05,0,0,0.05,3.95,0)" xlink:href="#aM"/><use transform="matrix(0.05,0,0,0.05,13.949999999999998,0)" xlink:href="#aI"/><use transform="matrix(0.05,0,0,0.05,18.95,0)" xlink:href="#aD"/><use transform="matrix(0.05,0,0,0.05,28.950000000000003,0)" xlink:href="#aA"/><use transform="matrix(0.05,0,0,0.05,34.9,0)" xlink:href="#bf"/><use transform="matrix(0.05,0,0,0.05,39.9,0)" xlink:href="#aF"/><use transform="matrix(0.05,0,0,0.05,49.9,0)" xlink:href="#aT"/></g><g id="y"><use transform="matrix(0.05,0,0,0.05,0,0)" xlink:href="#aK"/><use transform="matrix(0.05,0,0,0.05,10,0)" xlink:href="#aD"/></g><g id="z"><use transform="matrix(0.05,0,0,0.05,0,0)" xlink:href="#aJ"/><use transform="matrix(0.05,0,0,0.05,10,0)" xlink:href="#aE"/><use transform="matrix(0.05,0,0,0.05,19,0)" xlink:href="#aJ"/><use transform="matrix(0.05,0,0,0.05,29,0)" xlink:href="#aF"/><use transform="matrix(0.05,0,0,0.05,39,0)" xlink:href="#aA"/><use transform="matrix(0.05,0,0,0.05,44.95,0)" xlink:href="#aH"/><use transform="matrix(0.05,0,0,0.05,48.900000000000006,0)" xlink:href="#aB"/></g><path d="M185-189c-5-48-123-54-124 2 14 75 158 14 163 119 3 78-121 87-175 55-17-10-28-26-33-46l33-7c5 56 141 63 141-1 0-78-155-14-162-118-5-82 145-84 179-34 5 7 8 16 11 25" id="bg"/><path d="M34 0v-190h32V0H34zM24-211c8-23 27-35 38-54h36v5l-58 49H24" id="bh"/><g id="A"><use transform="matrix(0.05,0,0,0.05,0,0)" xlink:href="#bg"/><use transform="matrix(0.05,0,0,0.05,12,0)" xlink:href="#bh"/></g><g id="B"><use transform="matrix(0.05,0,0,0.05,0,0)" xlink:href="#bb"/><use transform="matrix(0.05,0,0,0.05,12,0)" xlink:href="#aE"/><use transform="matrix(0.05,0,0,0.05,21,0)" xlink:href="#aC"/><use transform="matrix(0.05,0,0,0.05,30,0)" xlink:href="#aJ"/><use transform="matrix(0.05,0,0,0.05,40,0)" xlink:href="#aC"/><use transform="matrix(0.05,0,0,0.05,49,0)" xlink:href="#aX"/><use transform="matrix(0.05,0,0,0.05,59,0)" xlink:href="#aF"/><use transform="matrix(0.05,0,0,0.05,69,0)" xlink:href="#aA"/></g><path d="M24-231v-30h32v30H24zM-9 49c24 4 33-6 33-30v-209h32V24c2 40-23 58-65 49V49" id="bi"/><g id="C"><use transform="matrix(0.05,0,0,0.05,0,0)" xlink:href="#aN"/><use transform="matrix(0.05,0,0,0.05,14.950000000000001,0)" xlink:href="#aD"/><use transform="matrix(0.05,0,0,0.05,24.950000000000003,0)" xlink:href="#aM"/><use transform="matrix(0.05,0,0,0.05,34.95,0)" xlink:href="#aE"/><use transform="matrix(0.05,0,0,0.05,43.95,0)" xlink:href="#aF"/><use transform="matrix(0.05,0,0,0.05,53.95,0)" xlink:href="#bi"/><use transform="matrix(0.05,0,0,0.05,57.900000000000006,0)" xlink:href="#aD"/><use transform="matrix(0.05,0,0,0.05,67.9,0)" xlink:href="#aE"/></g><g id="D"><use transform="matrix(0.05,0,0,0.05,0,0)" xlink:href="#aD"/><use transform="matrix(0.05,0,0,0.05,10,0)" xlink:href="#aM"/><use transform="matrix(0.05,0,0,0.05,20,0)" xlink:href="#aI"/><use transform="matrix(0.05,0,0,0.05,25,0)" xlink:href="#aA"/><use transform="matrix(0.05,0,0,0.05,30.950000000000003,0)" xlink:href="#aF"/><use transform="matrix(0.05,0,0,0.05,40.95,0)" xlink:href="#aM"/><use transform="matrix(0.05,0,0,0.05,50.95,0)" xlink:href="#aI"/><use transform="matrix(0.05,0,0,0.05,55.95,0)" xlink:href="#aD"/><use transform="matrix(0.05,0,0,0.05,65.95,0)" xlink:href="#aE"/></g><g id="E"><use transform="matrix(0.05,0,0,0.05,0,0)" xlink:href="#az"/><use transform="matrix(0.05,0,0,0.05,12,0)" xlink:href="#aA"/><use transform="matrix(0.05,0,0,0.05,17.95,0)" xlink:href="#aB"/><use transform="matrix(0.05,0,0,0.05,27.950000000000003,0)" xlink:href="#aC"/><use transform="matrix(0.05,0,0,0.05,36.95,0)" xlink:href="#aD"/><use transform="matrix(0.05,0,0,0.05,46.95,0)" xlink:href="#aE"/><use transform="matrix(0.05,0,0,0.05,55.95,0)" xlink:href="#aF"/><use transform="matrix(0.05,0,0,0.05,65.95,0)" xlink:href="#aA"/></g><g id="F"><use transform="matrix(0.05,0,0,0.05,0,0)" xlink:href="#aD"/><use transform="matrix(0.05,0,0,0.05,10,0)" xlink:href="#aM"/><use transform="matrix(0.05,0,0,0.05,20,0)" xlink:href="#aI"/><use transform="matrix(0.05,0,0,0.05,25,0)" xlink:href="#aA"/><use transform="matrix(0.05,0,0,0.05,30.950000000000003,0)" xlink:href="#aF"/><use transform="matrix(0.05,0,0,0.05,40.95,0)" xlink:href="#aK"/><use transform="matrix(0.05,0,0,0.05,50.95,0)" xlink:href="#aF"/></g><g id="G"><use transform="matrix(0.05,0,0,0.05,0,0)" xlink:href="#aK"/><use transform="matrix(0.05,0,0,0.05,10,0)" xlink:href="#aD"/><use transform="matrix(0.05,0,0,0.05,20,0)" xlink:href="#aG"/></g><path d="M30 0v-248h33v221h125V0H30" id="bj"/><g id="H"><use transform="matrix(0.05,0,0,0.05,0,0)" xlink:href="#bj"/><use transform="matrix(0.05,0,0,0.05,10,0)" xlink:href="#aD"/><use transform="matrix(0.05,0,0,0.05,20,0)" xlink:href="#aD"/><use transform="matrix(0.05,0,0,0.05,30,0)" xlink:href="#aA"/></g><g id="I"><use transform="matrix(0.05,0,0,0.05,0,0)" xlink:href="#aV"/><use transform="matrix(0.05,0,0,0.05,10,0)" xlink:href="#aF"/><use transform="matrix(0.05,0,0,0.05,20,0)" xlink:href="#aM"/><use transform="matrix(0.05,0,0,0.05,30,0)" xlink:href="#aK"/><use transform="matrix(0.05,0,0,0.05,40,0)" xlink:href="#aD"/><use transform="matrix(0.05,0,0,0.05,50,0)" xlink:href="#bi"/><use transform="matrix(0.05,0,0,0.05,53.95,0)" xlink:href="#aF"/></g><g id="J"><use transform="matrix(0.05,0,0,0.05,0,0)" xlink:href="#bb"/><use transform="matrix(0.05,0,0,0.05,12,0)" xlink:href="#aM"/><use transform="matrix(0.05,0,0,0.05,22,0)" xlink:href="#aC"/><use transform="matrix(0.05,0,0,0.05,31,0)" xlink:href="#aB"/><use transform="matrix(0.05,0,0,0.05,41,0)" xlink:href="#aG"/><use transform="matrix(0.05,0,0,0.05,44.95,0)" xlink:href="#aF"/><use transform="matrix(0.05,0,0,0.05,54.95,0)" xlink:href="#aA"/></g><path d="M109-170H84l-4-78h32zm-65 0H19l-4-78h33" id="bk"/><g id="K"><use transform="matrix(0.05,0,0,0.05,0,0)" xlink:href="#bk"/><use transform="matrix(0.05,0,0,0.05,6.3500000000000005,0)" xlink:href="#aD"/><use transform="matrix(0.05,0,0,0.05,16.35,0)" xlink:href="#aM"/><use transform="matrix(0.05,0,0,0.05,26.35,0)" xlink:href="#aI"/><use transform="matrix(0.05,0,0,0.05,31.35,0)" xlink:href="#aA"/><use transform="matrix(0.05,0,0,0.05,37.300000000000004,0)" xlink:href="#aF"/><use transform="matrix(0.05,0,0,0.05,47.300000000000004,0)" xlink:href="#aK"/><use transform="matrix(0.05,0,0,0.05,57.300000000000004,0)" xlink:href="#aF"/><use transform="matrix(0.05,0,0,0.05,67.30000000000001,0)" xlink:href="#bk"/></g><g id="L"><use transform="matrix(0.05,0,0,0.05,0,0)" xlink:href="#aD"/><use transform="matrix(0.05,0,0,0.05,10,0)" xlink:href="#aM"/></g><g id="M"><use transform="matrix(0.05,0,0,0.05,0,0)" xlink:href="#aK"/><use transform="matrix(0.05,0,0,0.05,10,0)" xlink:href="#aD"/></g><g id="N"><use transform="matrix(0.05,0,0,0.05,0,0)" xlink:href="#aE"/><use transform="matrix(0.05,0,0,0.05,9,0)" xlink:href="#aF"/><use transform="matrix(0.05,0,0,0.05,19,0)" xlink:href="#aG"/><use transform="matrix(0.05,0,0,0.05,22.95,0)" xlink:href="#aH"/><use transform="matrix(0.05,0,0,0.05,26.899999999999995,0)" xlink:href="#aD"/><use transform="matrix(0.05,0,0,0.05,36.9,0)" xlink:href="#aM"/><use transform="matrix(0.05,0,0,0.05,46.9,0)" xlink:href="#aI"/><use transform="matrix(0.05,0,0,0.05,51.900000000000006,0)" xlink:href="#aD"/><use transform="matrix(0.05,0,0,0.05,61.900000000000006,0)" xlink:href="#aE"/></g><g id="O"><use transform="matrix(0.05,0,0,0.05,0,0)" xlink:href="#aZ"/><use transform="matrix(0.05,0,0,0.05,14.950000000000001,0)" xlink:href="#aB"/><use transform="matrix(0.05,0,0,0.05,24.950000000000003,0)" xlink:href="#aE"/><use transform="matrix(0.05,0,0,0.05,33.95,0)" xlink:href="#aI"/><use transform="matrix(0.05,0,0,0.05,38.95,0)" xlink:href="#aA"/><use transform="matrix(0.05,0,0,0.05,44.900000000000006,0)" xlink:href="#aF"/><use transform="matrix(0.05,0,0,0.05,54.900000000000006,0)" xlink:href="#aA"/></g><path d="M205 0l-28-72H64L36 0H1l101-248h38L239 0h-34zm-38-99l-47-123c-12 45-31 82-46 123h93" id="bl"/><g id="P"><use transform="matrix(0.05,0,0,0.05,0,0)" xlink:href="#bl"/><use transform="matrix(0.05,0,0,0.05,12,0)" xlink:href="#aC"/><use transform="matrix(0.05,0,0,0.05,21,0)" xlink:href="#aI"/><use transform="matrix(0.05,0,0,0.05,26,0)" xlink:href="#aJ"/><use transform="matrix(0.05,0,0,0.05,36,0)" xlink:href="#aF"/><use transform="matrix(0.05,0,0,0.05,46,0)" xlink:href="#aG"/><use transform="matrix(0.05,0,0,0.05,49.95,0)" xlink:href="#aH"/><use transform="matrix(0.05,0,0,0.05,53.900000000000006,0)" xlink:href="#aT"/><use transform="matrix(0.05,0,0,0.05,62.900000000000006,0)" xlink:href="#aF"/><use transform="matrix(0.05,0,0,0.05,72.9,0)" xlink:href="#aA"/></g><g id="Q"><use transform="matrix(0.05,0,0,0.05,0,0)" xlink:href="#aD"/><use transform="matrix(0.05,0,0,0.05,10,0)" xlink:href="#aM"/><use transform="matrix(0.05,0,0,0.05,20,0)" xlink:href="#aI"/><use transform="matrix(0.05,0,0,0.05,25,0)" xlink:href="#aA"/><use transform="matrix(0.05,0,0,0.05,30.950000000000003,0)" xlink:href="#aF"/><use transform="matrix(0.05,0,0,0.05,40.95,0)" xlink:href="#aK"/><use transform="matrix(0.05,0,0,0.05,50.95,0)" xlink:href="#aF"/></g><g id="R"><use transform="matrix(0.05,0,0,0.05,0,0)" xlink:href="#bj"/><use transform="matrix(0.05,0,0,0.05,10,0)" xlink:href="#aD"/><use transform="matrix(0.05,0,0,0.05,20,0)" xlink:href="#aD"/><use transform="matrix(0.05,0,0,0.05,30,0)" xlink:href="#aA"/></g><g id="S"><use transform="matrix(0.05,0,0,0.05,0,0)" xlink:href="#aE"/><use transform="matrix(0.05,0,0,0.05,9,0)" xlink:href="#aF"/><use transform="matrix(0.05,0,0,0.05,19,0)" xlink:href="#aG"/><use transform="matrix(0.05,0,0,0.05,22.95,0)" xlink:href="#aH"/><use transform="matrix(0.05,0,0,0.05,26.899999999999995,0)" xlink:href="#aK"/><use transform="matrix(0.05,0,0,0.05,36.9,0)" xlink:href="#aF"/></g><g id="T"><use transform="matrix(0.05,0,0,0.05,0,0)" xlink:href="#bb"/><use transform="matrix(0.05,0,0,0.05,12,0)" xlink:href="#aM"/><use transform="matrix(0.05,0,0,0.05,22,0)" xlink:href="#aU"/><use transform="matrix(0.05,0,0,0.05,31,0)" xlink:href="#aH"/><use transform="matrix(0.05,0,0,0.05,34.95,0)" xlink:href="#aF"/><use transform="matrix(0.05,0,0,0.05,44.95,0)" xlink:href="#aA"/></g><g id="U"><use transform="matrix(0.05,0,0,0.05,0,0)" xlink:href="#aF"/><use transform="matrix(0.05,0,0,0.05,10,0)" xlink:href="#aG"/></g><g id="V"><use transform="matrix(0.05,0,0,0.05,0,0)" xlink:href="#aC"/><use transform="matrix(0.05,0,0,0.05,9,0)" xlink:href="#aB"/><use transform="matrix(0.05,0,0,0.05,19,0)" xlink:href="#aB"/><use transform="matrix(0.05,0,0,0.05,29,0)" xlink:href="#aA"/><use transform="matrix(0.05,0,0,0.05,34.95,0)" xlink:href="#aK"/><use transform="matrix(0.05,0,0,0.05,44.95,0)" xlink:href="#aH"/><use transform="matrix(0.05,0,0,0.05,48.900000000000006,0)" xlink:href="#aM"/><use transform="matrix(0.05,0,0,0.05,58.900000000000006,0)" xlink:href="#aF"/><use transform="matrix(0.05,0,0,0.05,68.9,0)" xlink:href="#aK"/><use transform="matrix(0.05,0,0,0.05,78.9,0)" xlink:href="#aB"/><use transform="matrix(0.05,0,0,0.05,88.9,0)" xlink:href="#aA"/></g><g id="W"><use transform="matrix(0.05,0,0,0.05,0,0)" xlink:href="#aY"/><use transform="matrix(0.05,0,0,0.05,10,0)" xlink:href="#aF"/><use transform="matrix(0.05,0,0,0.05,20,0)" xlink:href="#aA"/><use transform="matrix(0.05,0,0,0.05,25.950000000000003,0)" xlink:href="#aF"/></g><g id="X"><use transform="matrix(0.05,0,0,0.05,0,0)" xlink:href="#aY"/><use transform="matrix(0.05,0,0,0.05,10,0)" xlink:href="#aA"/><use transform="matrix(0.05,0,0,0.05,15.949999999999998,0)" xlink:href="#aB"/><use transform="matrix(0.05,0,0,0.05,25.950000000000003,0)" xlink:href="#aC"/><use transform="matrix(0.05,0,0,0.05,34.95,0)" xlink:href="#aD"/><use transform="matrix(0.05,0,0,0.05,44.95,0)" xlink:href="#aE"/><use transform="matrix(0.05,0,0,0.05,53.95,0)" xlink:href="#aF"/><use transform="matrix(0.05,0,0,0.05,63.95,0)" xlink:href="#aN"/><use transform="matrix(0.05,0,0,0.05,78.9,0)" xlink:href="#aH"/><use transform="matrix(0.05,0,0,0.05,82.85000000000001,0)" xlink:href="#aD"/><use transform="matrix(0.05,0,0,0.05,92.85000000000001,0)" xlink:href="#aM"/><use transform="matrix(0.05,0,0,0.05,102.85000000000001,0)" xlink:href="#aI"/><use transform="matrix(0.05,0,0,0.05,107.85000000000001,0)" xlink:href="#aB"/></g><path d="M232-93c-1 65-40 97-104 97C67 4 28-28 28-90v-158h33c8 89-33 224 67 224 102 0 64-133 71-224h33v155" id="bm"/><path d="M127-220V0H93v-220H8v-28h204v28h-85" id="bn"/><path d="M195 0l-74-108L45 0H8l94-129-87-119h37l69 98 67-98h37l-84 118L233 0h-38" id="bo"/><g id="Y"><use transform="matrix(0.05,0,0,0.05,0,0)" xlink:href="#aZ"/><use transform="matrix(0.05,0,0,0.05,14.950000000000001,0)" xlink:href="#bm"/><use transform="matrix(0.05,0,0,0.05,27.900000000000002,0)" xlink:href="#bn"/><use transform="matrix(0.05,0,0,0.05,38.85,0)" xlink:href="#bb"/><use transform="matrix(0.05,0,0,0.05,50.85,0)" xlink:href="#bo"/></g><path d="M233-177c-1 41-23 64-60 70L243 0h-38l-65-103H63V0H30v-248c88 3 205-21 203 71zM63-129c60-2 137 13 137-47 0-61-80-42-137-45v92" id="bp"/><g id="Z"><use transform="matrix(0.05,0,0,0.05,0,0)" xlink:href="#ba"/><use transform="matrix(0.05,0,0,0.05,10.950000000000001,0)" xlink:href="#ax"/><use transform="matrix(0.05,0,0,0.05,23.900000000000002,0)" xlink:href="#ay"/><use transform="matrix(0.05,0,0,0.05,37.900000000000006,0)" xlink:href="#aw"/><use transform="matrix(0.05,0,0,0.05,50.85000000000001,0)" xlink:href="#bn"/><use transform="matrix(0.05,0,0,0.05,61.80000000000001,0)" xlink:href="#av"/><use transform="matrix(0.05,0,0,0.05,66.80000000000001,0)" xlink:href="#aw"/><use transform="matrix(0.05,0,0,0.05,79.75000000000001,0)" xlink:href="#bm"/><use transform="matrix(0.05,0,0,0.05,92.70000000000002,0)" xlink:href="#bl"/><use transform="matrix(0.05,0,0,0.05,104.7,0)" xlink:href="#bp"/><use transform="matrix(0.05,0,0,0.05,117.65000000000003,0)" xlink:href="#bd"/></g><g id="aa"><use transform="matrix(0.05,0,0,0.05,0,0)" xlink:href="#bb"/><use transform="matrix(0.05,0,0,0.05,12,0)" xlink:href="#aM"/><use transform="matrix(0.05,0,0,0.05,22,0)" xlink:href="#aA"/><use transform="matrix(0.05,0,0,0.05,27.950000000000003,0)" xlink:href="#aJ"/><use transform="matrix(0.05,0,0,0.05,37.95,0)" xlink:href="#aI"/><use transform="matrix(0.05,0,0,0.05,42.95,0)" xlink:href="#aF"/><use transform="matrix(0.05,0,0,0.05,52.95,0)" xlink:href="#aA"/></g><g id="ab"><use transform="matrix(0.05,0,0,0.05,0,0)" xlink:href="#aN"/><use transform="matrix(0.05,0,0,0.05,14.950000000000001,0)" xlink:href="#aD"/><use transform="matrix(0.05,0,0,0.05,24.950000000000003,0)" xlink:href="#aM"/><use transform="matrix(0.05,0,0,0.05,34.95,0)" xlink:href="#aE"/><use transform="matrix(0.05,0,0,0.05,43.95,0)" xlink:href="#aF"/><use transform="matrix(0.05,0,0,0.05,53.95,0)" xlink:href="#bi"/><use transform="matrix(0.05,0,0,0.05,57.900000000000006,0)" xlink:href="#aD"/><use transform="matrix(0.05,0,0,0.05,67.9,0)" xlink:href="#aE"/></g><g id="ac"><use transform="matrix(0.05,0,0,0.05,0,0)" xlink:href="#bg"/><use transform="matrix(0.05,0,0,0.05,12,0)" xlink:href="#bh"/></g><path d="M30-248c118-7 216 8 213 122C240-48 200 0 122 0H30v-248zM63-27c89 8 146-16 146-99s-60-101-146-95v194" id="bq"/><g id="ad"><use transform="matrix(0.05,0,0,0.05,0,0)" xlink:href="#bq"/><use transform="matrix(0.05,0,0,0.05,12.950000000000001,0)" xlink:href="#aD"/><use transform="matrix(0.05,0,0,0.05,22.950000000000003,0)" xlink:href="#aE"/><use transform="matrix(0.05,0,0,0.05,31.950000000000003,0)" xlink:href="#aC"/><use transform="matrix(0.05,0,0,0.05,40.95,0)" xlink:href="#aB"/><use transform="matrix(0.05,0,0,0.05,50.95,0)" xlink:href="#aM"/><use transform="matrix(0.05,0,0,0.05,60.95,0)" xlink:href="#aD"/><use transform="matrix(0.05,0,0,0.05,70.95,0)" xlink:href="#aC"/><use transform="matrix(0.05,0,0,0.05,79.95,0)" xlink:href="#aI"/><use transform="matrix(0.05,0,0,0.05,84.95,0)" xlink:href="#aF"/><use transform="matrix(0.05,0,0,0.05,94.95,0)" xlink:href="#aA"/></g><g id="ae"><use transform="matrix(0.05,0,0,0.05,0,0)" xlink:href="#aC"/><use transform="matrix(0.05,0,0,0.05,9,0)" xlink:href="#aG"/><use transform="matrix(0.05,0,0,0.05,12.949999999999998,0)" xlink:href="#aH"/><use transform="matrix(0.05,0,0,0.05,16.9,0)" xlink:href="#aD"/><use transform="matrix(0.05,0,0,0.05,26.899999999999995,0)" xlink:href="#aM"/><use transform="matrix(0.05,0,0,0.05,36.9,0)" xlink:href="#aI"/><use transform="matrix(0.05,0,0,0.05,41.9,0)" xlink:href="#aD"/></g><g id="af"><use transform="matrix(0.05,0,0,0.05,0,0)" xlink:href="#bl"/><use transform="matrix(0.05,0,0,0.05,12,0)" xlink:href="#aC"/><use transform="matrix(0.05,0,0,0.05,21,0)" xlink:href="#aI"/><use transform="matrix(0.05,0,0,0.05,26,0)" xlink:href="#aJ"/><use transform="matrix(0.05,0,0,0.05,36,0)" xlink:href="#aF"/><use transform="matrix(0.05,0,0,0.05,46,0)" xlink:href="#aG"/><use transform="matrix(0.05,0,0,0.05,49.95,0)" xlink:href="#aH"/><use transform="matrix(0.05,0,0,0.05,53.900000000000006,0)" xlink:href="#aT"/><use transform="matrix(0.05,0,0,0.05,62.900000000000006,0)" xlink:href="#aF"/><use transform="matrix(0.05,0,0,0.05,72.9,0)" xlink:href="#aA"/></g><path d="M141-36C126-15 110 5 73 4 37 3 15-17 15-53c-1-64 63-63 125-63 3-35-9-54-41-54-24 1-41 7-42 31l-33-3c5-37 33-52 76-52 45 0 72 20 72 64v82c-1 20 7 32 28 27v20c-31 9-61-2-59-35zM48-53c0 20 12 33 32 33 41-3 63-29 60-74-43 2-92-5-92 41zm25-158c8-23 27-35 38-54h36v5l-58 49H73" id="br"/><g id="ag"><use transform="matrix(0.05,0,0,0.05,0,0)" xlink:href="#aV"/><use transform="matrix(0.05,0,0,0.05,10,0)" xlink:href="#aH"/><use transform="matrix(0.05,0,0,0.05,13.949999999999998,0)" xlink:href="#aI"/><use transform="matrix(0.05,0,0,0.05,18.95,0)" xlink:href="#br"/><use transform="matrix(0.05,0,0,0.05,28.950000000000003,0)" xlink:href="#aC"/><use transform="matrix(0.05,0,0,0.05,37.95,0)" xlink:href="#aB"/><use transform="matrix(0.05,0,0,0.05,47.95,0)" xlink:href="#aA"/><use transform="matrix(0.05,0,0,0.05,53.900000000000006,0)" xlink:href="#aF"/></g><path d="M143 4C61 4 22-44 18-125c-5-107 100-154 193-111 17 8 29 25 37 43l-32 9c-13-25-37-40-76-40-61 0-88 39-88 99 0 61 29 100 91 101 35 0 62-11 79-27v-45h-74v-28h105v86C228-13 192 4 143 4" id="bs"/><g id="ah"><use transform="matrix(0.05,0,0,0.05,0,0)" xlink:href="#bs"/><use transform="matrix(0.05,0,0,0.05,14,0)" xlink:href="#aJ"/><use transform="matrix(0.05,0,0,0.05,24,0)" xlink:href="#aF"/><use transform="matrix(0.05,0,0,0.05,34,0)" xlink:href="#aA"/><use transform="matrix(0.05,0,0,0.05,39.95,0)" xlink:href="#aK"/><use transform="matrix(0.05,0,0,0.05,49.95,0)" xlink:href="#aF"/><use transform="matrix(0.05,0,0,0.05,59.95,0)" xlink:href="#aA"/></g><path d="M114 20l821-1504h178L296 20H114" id="bt"/><g id="ai"><use transform="matrix(0.0087890625,0,0,0.0087890625,0,0)" xlink:href="#bt"/><use transform="matrix(0.0087890625,0,0,0.0087890625,10.8017578125,0)" xlink:href="#bt"/></g><path d="M622-1349c296 4 497 117 497 404 0 282-193 424-485 431H353V0H162v-1349h460zm-15 684c195-3 320-88 320-277 0-184-129-255-328-254H353v531h254" id="bu"/><path d="M839-1102c70 0 148 7 206 17v167c-112-18-268-36-363 15-129 69-208 203-208 395V0H294c-10-367 32-789-52-1082h171c21 75 41 161 48 250h5c67-152 152-270 373-270" id="bv"/><path d="M615-1102c343 0 484 203 482 560-1 347-147 562-488 562-336 0-475-219-479-562-4-349 156-560 485-560zm-8 989c240 0 301-180 301-429 0-245-55-427-290-427-236 0-299 181-299 427 0 243 61 429 288 429" id="bw"/><path d="M865-914c-3-187-2-380-2-570h180v1261c0 76 1 155 6 223H877c-8-49-9-116-10-174h-5C801-44 708 26 530 26c-135 0-234-46-297-139s-95-232-95-419c0-377 131-566 392-566 176 0 271 63 335 184zm-286-51c-222 0-255 197-255 427 0 229 31 425 253 425 237 0 286-195 286-441 0-238-52-411-284-411" id="bx"/><path d="M528 20c-247 0-343-132-343-381v-721h180v686c-4 177 45 284 224 277 194-8 279-136 279-336v-627h181c3 360-6 732 6 1082H885c-4-54-7-126-8-185h-3C809-64 714 20 528 20" id="by"/><path d="M631 20c-350 0-501-215-501-562 0-355 162-560 502-560 250 0 399 118 446 323l-192 14c-23-124-109-196-262-196-242 0-305 171-305 415 1 245 61 427 304 427 151 0 248-77 267-215l190 12C1039-107 883 20 631 20" id="bz"/><path d="M617-1102c355 0 481 238 477 599H322c5 222 84 388 301 388 144 0 244-59 284-166l158 45C1002-72 854 20 623 20c-342 0-490-220-490-568 0-346 151-554 484-554zm291 461c-18-192-90-328-289-328-194 0-287 128-295 328h584" id="bA"/><g id="aj"><use transform="matrix(0.0087890625,0,0,0.0087890625,0,0)" xlink:href="#bu"/><use transform="matrix(0.0087890625,0,0,0.0087890625,10.8017578125,0)" xlink:href="#bv"/><use transform="matrix(0.0087890625,0,0,0.0087890625,21.603515625,0)" xlink:href="#bw"/><use transform="matrix(0.0087890625,0,0,0.0087890625,32.4052734375,0)" xlink:href="#bx"/><use transform="matrix(0.0087890625,0,0,0.0087890625,43.20703125,0)" xlink:href="#by"/><use transform="matrix(0.0087890625,0,0,0.0087890625,54.0087890625,0)" xlink:href="#bz"/><use transform="matrix(0.0087890625,0,0,0.0087890625,64.810546875,0)" xlink:href="#bA"/><use transform="matrix(0.0087890625,0,0,0.0087890625,75.6123046875,0)" xlink:href="#bv"/></g><path d="M650-1214c-281 0-336 244-336 533 0 295 60 546 347 546 188 0 263-142 322-282l159 65C1058-155 935 20 659 20c-401 0-546-295-546-701 0-407 135-689 536-689 264 0 391 146 466 335l-168 65c-47-129-127-244-297-244" id="bB"/><path d="M706-1102c241 0 344 136 343 381V0H868v-695c1-168-57-273-220-268-190 6-283 138-283 336V0H185c-3-360 6-732-6-1082h170c4 54 7 126 8 185h3c63-121 164-204 346-205" id="bC"/><path d="M873-819c-18-114-119-146-250-146-163 0-245 50-245 151 0 151 170 148 294 185 182 54 388 94 388 320 0 240-189 325-439 329-245 4-410-69-454-268l159-31c24 133 136 168 295 165 144-2 270-31 270-171 0-164-195-160-331-202-167-52-350-87-350-299 0-218 173-315 413-313 220 2 373 77 412 260" id="bD"/><path d="M904-1102c199 0 220 177 220 381V0H956v-686c-3-114 0-215-60-264-70-33-125-4-158 71-26 56-39 140-39 252V0H531v-686c-3-114-1-215-61-264-78-41-136 24-157 84-24 69-39 159-39 259V0H105c-3-360 6-732-6-1082h149c6 50 3 123 8 175 36-100 83-195 216-195 135 0 166 79 196 196 42-105 93-196 236-196" id="bE"/><g id="ak"><use transform="matrix(0.0087890625,0,0,0.0087890625,0,0)" xlink:href="#bB"/><use transform="matrix(0.0087890625,0,0,0.0087890625,10.8017578125,0)" xlink:href="#bw"/><use transform="matrix(0.0087890625,0,0,0.0087890625,21.603515625,0)" xlink:href="#bC"/><use transform="matrix(0.0087890625,0,0,0.0087890625,32.4052734375,0)" xlink:href="#bD"/><use transform="matrix(0.0087890625,0,0,0.0087890625,43.20703125,0)" xlink:href="#by"/><use transform="matrix(0.0087890625,0,0,0.0087890625,54.0087890625,0)" xlink:href="#bE"/><use transform="matrix(0.0087890625,0,0,0.0087890625,64.810546875,0)" xlink:href="#bA"/><use transform="matrix(0.0087890625,0,0,0.0087890625,75.6123046875,0)" xlink:href="#bv"/></g></defs></g></svg>